<?xml version="1.0" encoding="utf-8"?>
<!-- Generator: Adobe Illustrator 17.1.0, SVG Export Plug-In . SVG Version: 6.00 Build 0)  -->
<!DOCTYPE svg PUBLIC "-//W3C//DTD SVG 1.1//EN" "http://www.w3.org/Graphics/SVG/1.1/DTD/svg11.dtd">
<svg version="1.1" id="Layer_1" xmlns="http://www.w3.org/2000/svg" xmlns:xlink="http://www.w3.org/1999/xlink" x="0px" y="0px"
	 viewBox="0 0 60 60" enable-background="new 0 0 60 60" xml:space="preserve">
<path fill="#FFFFFF" d="M0.5,10.3v39.3h59V10.3H0.5z M54.7,45.4c-0.4,0.6-1.3,0.7-1.8,0.3L35,32.3l-4.2,3.3
	c-0.2,0.2-0.5,0.3-0.8,0.3c-0.3,0-0.6-0.1-0.8-0.3L25,32.3L7.1,45.7c-0.2,0.2-0.5,0.3-0.8,0.3c-0.4,0-0.8-0.2-1.1-0.5
	C4.9,44.8,5,44,5.6,43.6l17.3-12.9L5.5,17c-0.6-0.4-0.7-1.3-0.2-1.8c0.4-0.6,1.3-0.7,1.8-0.2l1.3,1L30,33l21.5-17l1.3-1
	c0.6-0.4,1.4-0.4,1.8,0.2c0.4,0.6,0.4,1.4-0.2,1.8L37.1,30.7l17.3,12.9C55,44,55.1,44.8,54.7,45.4z"/>
</svg>
