<?xml version="1.0" encoding="utf-8"?>
<!-- Generator: Adobe Illustrator 17.1.0, SVG Export Plug-In . SVG Version: 6.00 Build 0)  -->
<!DOCTYPE svg PUBLIC "-//W3C//DTD SVG 1.1//EN" "http://www.w3.org/Graphics/SVG/1.1/DTD/svg11.dtd">
<svg version="1.1" id="Layer_1" xmlns="http://www.w3.org/2000/svg" xmlns:xlink="http://www.w3.org/1999/xlink" x="0px" y="0px"
	 viewBox="0 0 60 60" enable-background="new 0 0 60 60" xml:space="preserve">
<path fill-rule="evenodd" clip-rule="evenodd" fill="#FFFFFF" d="M30,2.4C14.4,2.4,1.7,15.1,1.7,30.7c0,12.5,8.1,23.1,19.3,26.8
	c1.4,0.3,1.9-0.6,1.9-1.4c0-0.7,0-2.5,0-4.8c-7.9,1.7-9.5-3.8-9.5-3.8c-1.3-3.3-3.1-4.1-3.1-4.1c-2.6-1.8,0.2-1.7,0.2-1.7
	c2.8,0.2,4.3,2.9,4.3,2.9c2.5,4.3,6.6,3.1,8.2,2.4c0.3-1.8,1-3.1,1.8-3.8c-6.3-0.7-12.9-3.1-12.9-14c0-3.1,1.1-5.6,2.9-7.6
	c-0.3-0.7-1.3-3.6,0.3-7.5c0,0,2.4-0.8,7.8,2.9c2.3-0.6,4.7-0.9,7.1-1c2.4,0,4.8,0.3,7.1,1c5.4-3.7,7.8-2.9,7.8-2.9
	c1.5,3.9,0.6,6.8,0.3,7.5c1.8,2,2.9,4.5,2.9,7.6c0,10.9-6.6,13.3-12.9,14c1,0.9,1.9,2.6,1.9,5.2c0,3.8,0,6.8,0,7.8
	c0,0.8,0.5,1.6,1.9,1.4c11.2-3.7,19.3-14.3,19.3-26.8C58.3,15.1,45.6,2.4,30,2.4z"/>
</svg>
