<?xml version="1.0" encoding="utf-8"?>
<!-- Generator: Adobe Illustrator 17.1.0, SVG Export Plug-In . SVG Version: 6.00 Build 0)  -->
<!DOCTYPE svg PUBLIC "-//W3C//DTD SVG 1.1//EN" "http://www.w3.org/Graphics/SVG/1.1/DTD/svg11.dtd">
<svg version="1.1" id="Layer_1" xmlns="http://www.w3.org/2000/svg" xmlns:xlink="http://www.w3.org/1999/xlink" x="0px" y="0px"
	 viewBox="0 0 60 60" enable-background="new 0 0 60 60" xml:space="preserve">
<path fill="#FFFFFF" d="M59.7,11.6c-2.2,1-4.5,1.6-7,1.9c2.5-1.5,4.5-3.9,5.4-6.7c-2.4,1.4-5,2.4-7.7,3c-2.2-2.4-5.4-3.8-8.9-3.8
	c-6.7,0-12.2,5.5-12.2,12.2c0,1,0.1,1.9,0.3,2.8C19.4,20.3,10.4,15.5,4.4,8.1c-1,1.8-1.7,3.9-1.7,6.1c0,4.2,2.2,8,5.4,10.1
	c-2-0.1-3.9-0.6-5.5-1.5l0,0.2c0,5.9,4.2,10.8,9.8,12c-1,0.3-2.1,0.4-3.2,0.4c-0.8,0-1.5-0.1-2.3-0.2c1.6,4.8,6.1,8.4,11.4,8.5
	c-4.2,3.3-9.4,5.2-15.1,5.2c-1,0-2-0.1-2.9-0.2c5.4,3.5,11.8,5.5,18.7,5.5c22.4,0,34.7-18.6,34.7-34.7c0-0.5,0-1.1,0-1.6
	C56,16.2,58.1,14,59.7,11.6z"/>
</svg>
